mtllib four-flag.mtl
# vertices
v -5504 -1792 -384
v -5504 -1792 -320
v -5504 576 -320
v -5504 576 -384
v 8448 576 -320
v 8448 -1792 -320
v 8448 -1792 -384
v 8448 576 -384
v -5504 512 -384
v -5504 512 8960
v -5504 576 8960
v -5504 576 -384
v 8448 576 8960
v 8448 512 8960
v 8448 512 -384
v 8448 576 -384
v 8384 -1792 -384
v 8384 -1792 8960
v 8384 576 8960
v 8384 576 -384
v 8448 576 8960
v 8448 -1792 8960
v 8448 -1792 -384
v 8448 576 -384
v -5504 -1792 -384
v -5504 -1792 8960
v -5504 -1728 8960
v -5504 -1728 -384
v 8448 -1728 8960
v 8448 -1792 8960
v 8448 -1792 -384
v 8448 -1728 -384
v -5504 -1792 -384
v -5504 -1792 8960
v -5504 576 8960
v -5504 576 -384
v -5440 576 8960
v -5440 -1792 8960
v -5440 -1792 -384
v -5440 576 -384
v -5504 -1792 8896
v -5504 -1792 8960
v -5504 576 8960
v -5504 576 8896
v 8448 576 8960
v 8448 -1792 8960
v 8448 -1792 8896
v 8448 576 8896

# texture coordinates
vt 768 -3584
vt 640 -3584
vt 640 1152
vt 768 1152
vt 16896 1152
vt -11008 1152
vt -11008 -3584
vt 16896 -3584
vt 16896 640
vt -11008 640
vt -11008 768
vt 16896 768
vt 768 1024
vt -17920 1024
vt -17920 1152
vt -11008 1024
vt 16896 1024
vt 16896 -17920
vt -11008 -17920
vt -17920 -3584
vt 16768 1152
vt 16768 -3584
vt 16768 -17920
vt 16768 768
vt -17920 -3456
vt 768 -3456
vt 16896 -3456
vt -11008 -3456
vt -10880 1152
vt -10880 -3584
vt -10880 -17920
vt -10880 768
vt -17792 -3584
vt -17792 1152
vt -11008 -17792
vt 16896 -17792

# normals
vn -1 0 0
vn 0 0 1
vn 0 -1 -0
vn -0 1 -0
vn 0 -0 -1
vn 1 0 0

o entity0_brush0
usemtl skies/mpterrax
f  1/1/1  2/2/1  3/3/1  4/4/1
usemtl skies/mpterrax
f  5/5/2  3/6/2  2/7/2  6/8/2
usemtl skies/mpterrax
f  6/9/3  2/10/3  1/11/3  7/12/3
usemtl skies/mpterrax
f  8/12/4  4/11/4  3/10/4  5/9/4
usemtl skies/mpterrax
f  7/8/5  1/7/5  4/6/5  8/5/5
usemtl skies/mpterrax
f  8/4/6  5/3/6  6/2/6  7/1/6

o entity0_brush1
usemtl skies/mpterrax
f  9/13/1  10/14/1  11/15/1  12/4/1
usemtl skies/mpterrax
f  13/5/2  11/6/2  10/16/2  14/17/2
usemtl skies/mpterrax
f  14/18/3  10/19/3  9/11/3  15/12/3
usemtl skies/mpterrax
f  16/12/4  12/11/4  11/19/4  13/18/4
usemtl skies/mpterrax
f  15/17/5  9/16/5  12/6/5  16/5/5
usemtl skies/mpterrax
f  16/4/6  13/15/6  14/14/6  15/13/6

o entity0_brush2
usemtl skies/mpterrax
f  17/1/1  18/20/1  19/15/1  20/4/1
usemtl skies/mpterrax
f  21/5/2  19/21/2  18/22/2  22/8/2
usemtl skies/mpterrax
f  22/18/3  18/23/3  17/24/3  23/12/3
usemtl skies/mpterrax
f  24/12/4  20/24/4  19/23/4  21/18/4
usemtl skies/mpterrax
f  23/8/5  17/22/5  20/21/5  24/5/5
usemtl skies/mpterrax
f  24/4/6  21/15/6  22/20/6  23/1/6

o entity0_brush3
usemtl skies/mpterrax
f  25/1/1  26/20/1  27/25/1  28/26/1
usemtl skies/mpterrax
f  29/27/2  27/28/2  26/7/2  30/8/2
usemtl skies/mpterrax
f  30/18/3  26/19/3  25/11/3  31/12/3
usemtl skies/mpterrax
f  32/12/4  28/11/4  27/19/4  29/18/4
usemtl skies/mpterrax
f  31/8/5  25/7/5  28/28/5  32/27/5
usemtl skies/mpterrax
f  32/26/6  29/25/6  30/20/6  31/1/6

o entity0_brush4
usemtl skies/mpterrax
f  33/1/1  34/20/1  35/15/1  36/4/1
usemtl skies/mpterrax
f  37/29/2  35/6/2  34/7/2  38/30/2
usemtl skies/mpterrax
f  38/31/3  34/19/3  33/11/3  39/32/3
usemtl skies/mpterrax
f  40/32/4  36/11/4  35/19/4  37/31/4
usemtl skies/mpterrax
f  39/30/5  33/7/5  36/6/5  40/29/5
usemtl skies/mpterrax
f  40/4/6  37/15/6  38/20/6  39/1/6

o entity0_brush5
usemtl skies/mpterrax
f  41/33/1  42/20/1  43/15/1  44/34/1
usemtl skies/mpterrax
f  45/5/2  43/6/2  42/7/2  46/8/2
usemtl skies/mpterrax
f  46/18/3  42/19/3  41/35/3  47/36/3
usemtl skies/mpterrax
f  48/36/4  44/35/4  43/19/4  45/18/4
usemtl skies/mpterrax
f  47/8/5  41/7/5  44/6/5  48/5/5
usemtl skies/mpterrax
f  48/34/6  45/15/6  46/20/6  47/33/6

