mtllib glass-cave-post.mtl
# vertices
v -84 150 -16
v -84 150 4
v -84 160 4
v -84 160 -16
v 80 160 4
v 80 150 4
v 80 150 -16
v 80 160 -16
v -96 0 -16
v -96 0 4
v -96 160 4
v -96 160 -16
v -84 160 4
v -84 0 4
v -84 0 -16
v -84 160 -16
v -84 105 4
v -84 120 4
v -84 120 -16
v -84 105 -16
v -48 150 4
v -48 150 -16
v -32 150 4
v -32 150 -16
v 80 105 4
v 28 150 4
v 28 150 -16
v 80 105 -16
v 80 120 4
v 44 150 4
v 44 150 -16
v 80 120 -16
v 80 0 -16
v 80 0 4
v 80 160 4
v 80 160 -16
v 92 160 4
v 92 0 4
v 92 0 -16
v 92 160 -16

# texture coordinates
vt 0.125 1.171875
vt -0.03125 1.171875
vt -0.03125 1.25
vt 0.125 1.25
vt 0.625 1.25
vt -0.65625 1.25
vt -0.65625 1.171875
vt 0.625 1.171875
vt 0.625 -0.03125
vt -0.65625 -0.03125
vt -0.65625 0.125
vt 0.625 0.125
vt 0.125 -0
vt -0.03125 -0
vt -0.75 1.25
vt -0.75 -0
vt -0.65625 -0
vt -0.75 -0.03125
vt -0.75 0.125
vt -0.03125 0.8203125
vt -0.03125 0.9375
vt 0.125 0.9375
vt 0.125 0.8203125
vt -0.375 -0.03125
vt -0.375 0.125
vt -0.25 1.171875
vt -0.375 1.171875
vt -0.65625 0.9375
vt -0.65625 0.8203125
vt -0.25 0.125
vt -0.25 -0.03125
vt 0.21875 -0.03125
vt 0.21875 0.125
vt 0.625 0.9375
vt 0.34375 1.171875
vt 0.21875 1.171875
vt 0.625 0.8203125
vt 0.34375 0.125
vt 0.34375 -0.03125
vt 0.71875 1.25
vt 0.625 -0
vt 0.71875 -0
vt 0.71875 -0.03125
vt 0.71875 0.125

# normals
vn -1 0 0
vn 0 0 1
vn 0 -1 -0
vn -0 1 -0
vn 0 -0 -1
vn 1 0 0
vn -0.6401843996644798 0.7682212795973759 -0
vn 0.6543767444389416 -0.756168682462777 -0
vn -0.6543767444389416 -0.756168682462777 -0
vn 0.6401843996644798 0.7682212795973759 -0

o entity0_brush0
usemtl urban_terror/wood4a
f  1/1/1  2/2/1  3/3/1  4/4/1
usemtl urban_terror/wood4a
f  5/5/2  3/6/2  2/7/2  6/8/2
usemtl urban_terror/wood4a
f  6/9/3  2/10/3  1/11/3  7/12/3
usemtl urban_terror/wood4a
f  8/12/4  4/11/4  3/10/4  5/9/4
usemtl urban_terror/wood4a
f  7/8/5  1/7/5  4/6/5  8/5/5
usemtl urban_terror/wood4a
f  8/4/6  5/3/6  6/2/6  7/1/6

o entity0_brush1
usemtl urban_terror/wood4a
f  9/13/1  10/14/1  11/3/1  12/4/1
usemtl urban_terror/wood4a
f  13/6/2  11/15/2  10/16/2  14/17/2
usemtl urban_terror/wood4a
f  14/10/3  10/18/3  9/19/3  15/11/3
usemtl urban_terror/wood4a
f  16/11/4  12/19/4  11/18/4  13/10/4
usemtl urban_terror/wood4a
f  15/17/5  9/16/5  12/15/5  16/6/5
usemtl urban_terror/wood4a
f  16/4/6  13/3/6  14/14/6  15/13/6

o entity0_brush2
usemtl urban_terror/wood4a
f  17/20/1  18/21/1  19/22/1  20/23/1
usemtl urban_terror/wood4a
f  19/11/7  18/10/7  21/24/7  22/25/7
usemtl urban_terror/wood4a
f  23/26/2  21/27/2  18/28/2  17/29/2
usemtl urban_terror/wood4a
f  24/30/4  22/25/4  21/24/4  23/31/4
usemtl urban_terror/wood4a
f  20/29/5  19/28/5  22/27/5  24/26/5
usemtl urban_terror/wood4a
f  20/11/8  24/30/8  23/31/8  17/10/8

o entity0_brush3
usemtl urban_terror/wood4a
f  25/9/9  26/32/9  27/33/9  28/12/9
usemtl urban_terror/wood4a
f  29/34/2  30/35/2  26/36/2  25/37/2
usemtl urban_terror/wood4a
f  31/38/4  27/33/4  26/32/4  30/39/4
usemtl urban_terror/wood4a
f  28/37/5  27/36/5  31/35/5  32/34/5
usemtl urban_terror/wood4a
f  32/12/10  31/38/10  30/39/10  29/9/10
usemtl urban_terror/wood4a
f  28/23/6  32/22/6  29/21/6  25/20/6

o entity0_brush4
usemtl urban_terror/wood4a
f  33/13/1  34/14/1  35/3/1  36/4/1
usemtl urban_terror/wood4a
f  37/40/2  35/5/2  34/41/2  38/42/2
usemtl urban_terror/wood4a
f  38/43/3  34/9/3  33/12/3  39/44/3
usemtl urban_terror/wood4a
f  40/44/4  36/12/4  35/9/4  37/43/4
usemtl urban_terror/wood4a
f  39/42/5  33/41/5  36/5/5  40/40/5
usemtl urban_terror/wood4a
f  40/4/6  37/3/6  38/14/6  39/13/6

