mtllib jump-small.mtl
# vertices
v -46.39191898578841 32 -80
v -46.39191898578841 8 -80
v -46.39191898578849 8 -64
v -46.39191898578849 32 -64
v 33.60808101420852 -32 -80
v 33.60808101420844 -32 -64
v 81.60808101421132 -32 -64
v 81.60808101421132 -32 -80
v -46.391918985788834 32 -64
v -46.391918985788834 8 -64
v -46.391918985788834 8 64
v -46.391918985788834 32 64
v 33.60808101420844 -32 -64
v 33.60808101420844 -32 64
v 81.60808101421136 -32 64
v 81.60808101421128 -32 -64
v -46.39191898578889 32 64
v -46.39191898578889 8 64
v -46.391918985788905 8 80
v -46.391918985788905 32 80
v 33.60808101421571 -32 64
v 33.60808101421571 -32 80
v 81.60808101421131 -32 80
v 81.6080810142114 -32 64
v -62.39191898578827 40 -80
v -62.39191898578827 16 -80
v -62.3919189857894 16 80
v -62.3919189857894 40 80
v -46.39191898579156 8 80
v -46.39191898578868 8 -80
v -46.39191898579156 32 80
v -46.39191898578868 32 -80

# texture coordinates
vt 1.25 0.5
vt 1.25 0.125
vt 1 0.125
vt 1 0.5
vt 0.5251263 1.25
vt 0.5251263 1
vt -0.7248737 1
vt -0.7248737 1.25
vt -0.7248737 0.5
vt -0.7248737 0.125
vt 0.5251263 -0.5
vt 1.2751262 -0.5
vt 1.2751262 1
vt 1.2751262 1.25
vt 0.5 0.25
vt 0.5 0.0625
vt -0.5 0.0625
vt -0.5 0.25
vt 1 -0.6375631
vt 0 -0.6375631
vt 0 -0.012563139
vt 1 -0.012563139
vt -0.36243686 0.25
vt -0.36243686 0.0625
vt 0.26256314 -0.25
vt 0.6375631 -0.25
vt 0 -1.0125631
vt 1 -1.0125631
vt -1 0.5
vt -1 0.125
vt -1.25 0.125
vt -1.25 0.5
vt 0.5251263 -1
vt 0.5251263 -1.25
vt -0.7248737 -1.25
vt -0.7248737 -1
vt 1.2751262 -1.25
vt 1.2751262 -1
vt 1.25 0.625
vt 1.25 0.25
vt -1.25 0.25
vt -1.25 0.625
vt -0.9748737 -1.25
vt -0.9748737 1.25
vt -0.9748737 0.625
vt -0.9748737 0.25

# normals
vn -1 0 -5.329070518200751e-15
vn -0.44721359549995754 -0.8944271909999161 -2.2243506013095547e-15
vn 0 0 1
vn -0 -1 -0
vn 0 0 -1
vn 0.447213595499958 0.894427190999916 -0
vn -1 0 -0
vn -0.44721359549995754 -0.8944271909999161 -0
vn 0.44721359549995776 0.8944271909999159 -2.979040983896726e-16
vn -1 0 -8.881784197001252e-16
vn 0.44721359549995754 0.8944271909999161 2.38323278711738e-15
vn -1 0 -7.105427357601002e-15
vn -0.4472135954999786 -0.8944271909999055 -3.177643716156656e-15
vn 0.4472135954999786 0.8944271909999055 2.780438251637074e-16
vn 1 0 6.217248937900876e-16

o entity0_brush0
usemtl base_wall/c_met5_2
f  1/1/1  2/2/1  3/3/1  4/4/1
usemtl base_wall/c_met5_2
f  5/5/2  6/6/2  3/7/2  2/8/2
usemtl base_wall/c_met5_2
f  4/9/3  3/10/3  6/11/3  7/12/3
usemtl base_wall/c_met5_2
f  7/13/4  6/6/4  5/5/4  8/14/4
usemtl base_wall/c_met5_2
f  8/12/5  5/11/5  2/10/5  1/9/5
usemtl base_wall/c_met5_2
f  4/7/6  7/13/6  8/14/6  1/8/6

o entity0_brush1
usemtl sfx/launchpad_diamond
f  9/15/7  10/16/7  11/17/7  12/18/7
usemtl sfx/launchpad_diamond
f  13/19/8  14/20/8  11/21/8  10/22/8
usemtl sfx/launchpad_diamond
f  12/23/3  11/24/3  14/25/3  15/26/3
usemtl sfx/launchpad_diamond
f  15/27/4  14/20/4  13/19/4  16/28/4
usemtl sfx/launchpad_diamond
f  16/26/5  13/25/5  10/24/5  9/23/5
usemtl sfx/launchpad_diamond
f  12/21/9  15/27/9  16/28/9  9/22/9

o entity0_brush2
usemtl base_wall/c_met5_2
f  17/29/10  18/30/10  19/31/10  20/32/10
usemtl base_wall/c_met5_2
f  21/33/8  22/34/8  19/35/8  18/36/8
usemtl base_wall/c_met5_2
f  20/9/3  19/10/3  22/11/3  23/12/3
usemtl base_wall/c_met5_2
f  23/37/4  22/34/4  21/33/4  24/38/4
usemtl base_wall/c_met5_2
f  24/12/5  21/11/5  18/10/5  17/9/5
usemtl base_wall/c_met5_2
f  20/35/11  23/37/11  24/38/11  17/36/11

o entity0_brush3
usemtl base_wall/c_met5_2
f  25/39/12  26/40/12  27/41/12  28/42/12
usemtl base_wall/c_met5_2
f  29/35/13  27/43/13  26/44/13  30/8/13
usemtl base_wall/c_met5_2
f  31/9/3  28/45/3  27/46/3  29/10/3
usemtl base_wall/c_met5_2
f  30/10/5  26/46/5  25/45/5  32/9/5
usemtl base_wall/c_met5_2
f  32/8/14  25/44/14  28/43/14  31/35/14
usemtl base_wall/c_met5_2
f  30/2/15  32/1/15  31/32/15  29/31/15

